<svg xmlns="http://www.w3.org/2000/svg" viewBox="0 0 469.83 512.03"><defs><style>.ea93c958-ec73-492e-bc5f-afd92cd7d9f2{fill:#435d67;}.a0431844-b045-47dc-b950-094e7a5da2fd{fill:#719fb0;}.bd56580c-1f80-4ea6-b52a-858f13cc02f3{fill:#eddea2;stroke:#666;stroke-miterlimit:10;}.a53392f5-0b49-465e-8433-ce39d8f22403{fill:#455a64;}</style></defs><g id="b62e610c-111e-4fca-a11b-d08f72afd804" data-name="Layer 2"><g id="b6b00d29-27fb-41c1-bf0f-99d578311570" data-name="Capa 1"><path class="ea93c958-ec73-492e-bc5f-afd92cd7d9f2" d="M245.33,256a32,32,0,0,1,0-64H362.67V53.34A53.33,53.33,0,0,0,309.33,0h-256A10.66,10.66,0,0,0,42.67,10.67V437.34A10.67,10.67,0,0,0,53.33,448h256a53.34,53.34,0,0,0,53.34-53.34V256Z"/><path class="a0431844-b045-47dc-b950-094e7a5da2fd" d="M185.41,55.66,64.24,3.74A46.09,46.09,0,0,0,0,46.06V414a46,46,0,0,0,27.93,42.35L149.1,508.29A46.06,46.06,0,0,0,213.33,466V98A46,46,0,0,0,185.41,55.66Z"/><path d="M160,298.67A10.67,10.67,0,0,1,149.33,288V245.34a10.67,10.67,0,1,1,21.34,0V288A10.67,10.67,0,0,1,160,298.67Z"/><path class="bd56580c-1f80-4ea6-b52a-858f13cc02f3" d="M468.52,228.08a10.68,10.68,0,0,0-2.32-11.63l-64-64a10.67,10.67,0,0,0-15.09,15.09l45.81,45.8H245.33a10.67,10.67,0,0,0,0,21.33H432.92l-45.78,45.78A10.67,10.67,0,0,0,402,295.8l.26-.26,64-64A10.58,10.58,0,0,0,468.52,228.08Z"/><path class="a53392f5-0b49-465e-8433-ce39d8f22403" d="M160,298.67A10.67,10.67,0,0,1,149.33,288V245.34a10.67,10.67,0,1,1,21.34,0V288A10.67,10.67,0,0,1,160,298.67Z"/></g></g></svg>